<svg width="96" height="96" viewBox="0 0 96 96" fill="none" xmlns="http://www.w3.org/2000/svg">
  <rect width="96" height="96" fill="#F3F4F6"/>
  <path d="M36 32C36 30.8954 36.8954 30 38 30H58C59.1046 30 60 30.8954 60 32V50.5858L56.7071 47.2929C56.3166 46.9024 55.6834 46.9024 55.2929 47.2929L48 54.5858L44.7071 51.2929C44.3166 50.9024 43.6834 50.9024 43.2929 51.2929L36 58.5858V32Z" fill="#9CA3AF"/>
  <path d="M48 44C50.2091 44 52 42.2091 52 40C52 37.7909 50.2091 36 48 36C45.7909 36 44 37.7909 44 40C44 42.2091 45.7909 44 48 44Z" fill="#9CA3AF"/>
  <circle cx="48" cy="64" r="8" fill="#6B7280"/>
  <circle cx="48" cy="64" r="4" fill="#D1D5DB"/>
  <path d="M48 60V52" stroke="#6B7280" stroke-width="2" stroke-linecap="round"/>
</svg> 